<svg id="Capa_1" enable-background="new 0 0 512.001 512.001" height="512" viewBox="0 0 512.001 512.001" width="512" xmlns="http://www.w3.org/2000/svg"><g><path d="m438.71 255.11c-4.898 46.095 4.964 78.425 21.043 102.649 12.428 18.725 4.454 44.205-16.416 52.543-50.181 20.048-112.722 31.901-187.337 31.901s-137.156-11.854-187.336-31.901c-20.87-8.338-28.844-33.818-16.416-52.543 16.079-24.224 25.94-56.555 21.043-102.649z" fill="#d99a84"/><ellipse cx="73.291" cy="239.915" fill="#ffbe9d" rx="60.527" ry="56.455"/><ellipse cx="438.71" cy="239.915" fill="#ffbe9d" rx="60.527" ry="56.455"/><path d="m54.671 25.285c18.62 35.312 72.255 77.312 111.87 93.418l40.787-40.787c-14.142-41.847-65.559-75.524-127.234-69.774-11.109 1.036-20.542 7.701-25.441 17.125z" fill="#565e75"/><path d="m54.671 25.285c-1.86 3.58-3.09 7.544-3.484 11.765-5.75 61.675 27.926 113.093 69.773 127.234l45.58-45.58c-14.135-45.789-75.939-87.359-111.869-93.419z" fill="#e7889d"/><path d="m457.33 25.285c-18.62 35.312-72.255 77.312-111.87 93.418l-40.788-40.787c14.141-41.847 65.559-75.523 127.234-69.773 11.109 1.036 20.542 7.701 25.441 17.125z" fill="#565e75"/><path d="m457.33 25.285c1.86 3.58 3.09 7.544 3.484 11.765 5.75 61.675-27.926 113.093-69.773 127.234l-45.58-45.58c14.135-45.789 75.94-87.359 111.869-93.419z" fill="#e7889d"/><path d="m396.115 504.501c20.598 0 36.117-19.07 31.554-39.157-17.802-78.378-87.903-136.883-171.669-136.883s-153.866 58.505-171.669 136.883c-4.563 20.087 10.956 39.157 31.554 39.157z" fill="#565e75"/><path d="m112.995 431.573c3.368 1.221 57.56 33.373 143.006 33.373s139.638-32.152 143.006-33.373c4.728-2.534 9.074-5.428 13.051-8.6-29.409-56.176-88.254-94.512-156.057-94.512s-126.648 38.336-156.057 94.512c3.977 3.172 8.323 6.066 13.051 8.6z" fill="#404656"/><path d="m366.75 323.276c56.883 5.505 56.424 61.304 18.083 81.856-37.845 19.401-82.268 29.814-128.833 29.814s-90.989-10.413-128.833-29.814c-38.341-20.552-38.8-76.351 18.083-81.856z" fill="#fbf1cf"/><path d="m186.048 350.906v-27.63h-40.798c-56.883 5.505-56.424 61.304-18.083 81.856 21.385 10.963 44.87 19.053 69.655 24.019-42.127-19.137-30.589-70.426-10.774-78.245z" fill="#fae0bd"/><path d="m433.843 227.624c0-84.432-79.623-152.877-177.842-152.877-98.22 0-177.842 68.445-177.842 152.877s79.623 142.322 177.842 142.322 177.842-57.89 177.842-142.322z" fill="#ffd3bd"/><path d="m256 66.928c-133.193-35.579-215.97 86.259-185.644 179.176 3.169 9.709 15.749 12.216 22.221 4.316 19.381-23.659 33.729-60.441 39.439-91.075 45.582 3.041 107.624-15.354 123.985-30.827 16.361 15.473 78.403 33.869 123.985 30.827 5.71 30.634 20.057 67.416 39.439 91.075 6.472 7.901 19.052 5.393 22.221-4.316 30.325-92.917-52.452-214.755-185.646-179.176z" fill="#d99a84"/><g><g><path d="m203.749 247.645c.007 13.438-13.667 24.338-30.541 24.346s-30.559-10.878-30.566-24.316 13.667-24.338 30.541-24.347c16.875-.008 30.56 10.879 30.566 24.317z" fill="#eda1ab"/><path d="m308.252 247.592c.007 13.438 13.691 24.324 30.566 24.315 16.874-.008 30.548-10.909 30.541-24.346-.007-13.438-13.691-24.325-30.565-24.316-16.875.009-30.549 10.909-30.542 24.347z" fill="#eda1ab"/><path d="m285.944 236.604c-.009-18.509-13.419-20.242-29.959-20.233-16.541.008-29.949 1.754-29.939 20.263.009 18.509 13.426 33.506 29.966 33.498 16.54-.009 29.942-15.02 29.932-33.528z" fill="#565e75"/></g></g><path d="m506.737 239.915c0-30.501-22.913-56.519-54.154-62.595-2.639-13.422-7.098-26.603-13.287-39.094 21.98-27.171 32.519-63.975 28.986-101.873-1.764-18.911-16.769-33.916-35.679-35.679-53.299-4.964-100.326 18.091-123.876 52.645-17.023-.672-34.722 1.233-52.726 5.856-18.005-4.622-35.703-6.527-52.726-5.855-23.11-33.909-69.776-57.687-123.877-52.646-18.911 1.764-33.915 16.769-35.678 35.679-.415 4.447-.64 8.948-.67 13.378-.028 4.153 3.329 7.551 7.501 7.551 4.118 0 7.471-3.325 7.499-7.449.026-3.937.277-11.959 1.28-15.883 23.6 6.03 51.19 24.364 69.551 41.827-19.287 12.042-35.761 28.564-48.178 48.211-8.503-11.834-14.892-25.712-18.668-40.691-1.013-4.017-5.087-6.455-9.106-5.439-4.016 1.013-6.452 5.089-5.439 9.106 4.829 19.158 13.515 36.764 25.219 51.259-6.19 12.492-10.649 25.674-13.289 39.097-31.241 6.076-54.155 32.095-54.155 62.596 0 32.674 26.203 59.686 59.888 63.481-2.924 18.758-9.22 35.252-19.153 50.216-15.064 22.696-5.4 53.555 19.883 63.655 7.746 3.094 15.843 6.011 24.163 8.706-5.687 11.992-10.047 24.588-13.028 37.709-5.618 24.735 13.404 48.318 38.868 48.318h236.016c4.143 0 7.5-3.358 7.5-7.5s-3.357-7.5-7.5-7.5h-236.016c-15.86 0-27.721-14.671-24.241-29.996 4.671-20.562 13.171-40.403 26.079-58.857 2.207 1.512 4.644 2.953 6.022 3.659 39.099 20.044 84.832 30.64 132.254 30.64 47.423 0 93.156-10.595 132.255-30.64 1.296-.664 3.73-2.088 6.022-3.659 12.031 17.201 21.071 36.81 26.078 58.857 3.474 15.297-8.353 29.996-24.24 29.996h-8.895c-4.143 0-7.5 3.358-7.5 7.5s3.357 7.5 7.5 7.5h8.895c25.467 0 44.485-23.587 38.867-48.318-2.98-13.12-7.34-25.717-13.027-37.709 8.319-2.695 16.417-5.612 24.164-8.706 25.294-10.106 34.938-40.971 19.882-63.655-9.932-14.964-16.228-31.458-19.152-50.216 33.684-3.796 59.888-30.808 59.888-63.482zm-53.391-202.169c2.965 31.807-5.021 62.638-22.044 86.247-12.368-19.571-28.817-36.126-48.181-48.217 18.36-17.463 45.951-35.796 69.551-41.827.315 1.233.553 2.497.674 3.797zm-22.136-22.136c4.87.454 9.31 2.339 12.931 5.21-24.398 7.629-53.523 25.951-74.743 47.382-13.49-6.527-27.956-10.974-43.116-13.246 24.786-29.711 65.759-43.001 104.928-39.346zm-363.351 5.211c3.621-2.871 8.061-4.756 12.931-5.21 44.014-4.103 82.892 12.931 104.929 39.346-15.16 2.272-29.626 6.719-43.116 13.246-21.22-21.432-50.345-39.754-74.744-47.382zm186.206 53.353c1.269.339 2.603.339 3.871 0 126.695-33.843 205.351 81.445 176.579 169.603-1.338 4.099-6.582 5.194-9.289 1.89-16.925-20.661-31.788-55.083-37.867-87.696-.697-3.737-4.07-6.36-7.872-6.109-44.543 2.967-104.354-15.573-118.333-28.793-2.892-2.735-7.416-2.734-10.307 0-7.052 6.67-25.814 14.738-47.799 20.555-24.828 6.569-50.538 9.572-70.533 8.238-3.79-.249-7.176 2.372-7.872 6.109-6.079 32.613-20.943 67.037-37.867 87.696-2.709 3.306-7.953 2.202-9.289-1.89-28.766-88.133 49.874-203.451 176.578-169.603zm167.542 186.944c-8.797 30.146-28.993 54.033-55.229 71.058-30.08 19.52-69.279 30.27-110.377 30.27s-80.296-10.75-110.377-30.27c-26.064-16.914-46.381-40.748-55.227-71.049 3.038-1.25 5.776-3.263 7.982-5.955 20.672-25.235 33.769-60.86 39.712-88.052 20.416.486 45.063-2.716 68.794-8.996 20.985-5.553 38.661-12.815 49.116-20.048 10.456 7.233 28.131 14.496 49.116 20.048 23.731 6.279 48.383 9.479 68.794 8.996 5.942 27.191 19.039 62.816 39.712 88.052 2.205 2.692 4.946 4.696 7.984 5.946zm-401.343-21.203c0-21.595 15.308-40.286 36.893-46.634-1.625 18.662.289 37.439 6.07 55.15 1.878 5.754 6.152 10.306 11.591 12.584 2.368 9.284 5.711 18.196 9.991 26.677-33.188 6.827-64.545-16.612-64.545-47.777zm72.512 120.73c-.815 13.522 4.27 26.916 13.633 37.522-3.321 4.656-6.408 9.433-9.256 14.327-8.877-2.811-17.503-5.88-25.706-9.157-16.447-6.57-22.748-26.668-12.95-41.43 11.547-17.396 18.695-36.557 21.791-58.382 4.2-.405 8.337-1.172 12.382-2.305 5.829 8.806 12.763 17.048 20.745 24.646-12.393 8.055-19.766 20.276-20.639 34.779zm288.573 37.845c-36.978 18.944-80.319 28.956-125.349 28.956-45.026 0-88.371-10.013-125.347-28.955-26.639-14.324-32.377-48.614-5.188-62.254 36.582 28.443 83.471 41.209 130.535 41.209 47.105 0 93.979-12.787 130.535-41.208 27.152 13.62 21.498 47.901-5.186 62.252zm72.154-36.583c9.796 14.758 3.504 34.858-12.948 41.431-8.206 3.278-16.832 6.346-25.707 9.157-2.848-4.894-5.936-9.672-9.256-14.328 19.815-22.447 18.782-55.54-7.004-72.301 7.982-7.598 14.916-15.839 20.745-24.645 4.045 1.133 8.182 1.899 12.382 2.304 3.094 21.825 10.242 40.986 21.788 58.382zm-26.309-74.216c4.279-8.481 7.622-17.393 9.99-26.677 5.438-2.278 9.712-6.829 11.591-12.583 5.78-17.711 7.695-36.488 6.07-55.15 21.585 6.348 36.892 25.038 36.892 46.634 0 31.457-31.675 54.54-64.543 47.776zm-106.209-88.625c-.003 0-.008 0-.011 0-12.154.007-22.037 9.9-22.031 22.054.002 4.141 3.359 7.497 7.5 7.497h.004c4.142-.002 7.498-3.361 7.496-7.503-.002-3.884 3.156-7.045 7.039-7.047h.003c3.882 0 7.041 3.157 7.043 7.039.002 4.142 3.359 7.497 7.5 7.497h.004c4.142-.002 7.498-3.361 7.496-7.503-.006-12.154-9.893-22.034-22.043-22.034zm-129.996.066c-.003 0-.007 0-.011 0-12.182.006-22.039 9.87-22.032 22.054.002 4.141 3.359 7.496 7.5 7.496h.004c4.142-.003 7.499-3.362 7.496-7.504-.002-3.891 3.146-7.044 7.039-7.046h.004c3.881 0 7.04 3.157 7.042 7.039.002 4.142 3.359 7.497 7.5 7.497h.003c4.142-.002 7.498-3.361 7.497-7.503-.005-12.174-9.857-22.033-22.042-22.033zm64.992 9.738c-12.155.006-37.449.019-37.436 27.767.012 22.157 16.302 40.994 37.451 40.994h.019c20.649-.01 37.44-18.417 37.429-41.031 0-.001 0-.001 0-.001-.014-27.747-25.283-27.755-37.463-27.729zm.027 53.762c-.003 0-.007 0-.011 0-12.897 0-22.444-12.295-22.452-26.002-.005-9.721 3.09-12.749 22.443-12.759h.124c17.019 0 22.326 1.774 22.332 12.737.007 14.343-10.058 26.017-22.436 26.024z"/></g></svg>